<svg viewBox="0 0 18 18" xmlns="http://www.w3.org/2000/svg" xmlns:xlink="http://www.w3.org/1999/xlink" width="18.000000" height="18.000000" fill="none">
	<rect id="Icon" width="18.000000" height="18.000000" x="0.000000" y="0.000000" transform="matrix(1,0,0,-1,0,17.9999)" />
	<path id="Vector" d="M14.52 16.62L13.86 16.62L13.86 17.28C13.86 17.48 13.79 17.65 13.65 17.79C13.51 17.93 13.34 18 13.14 18C12.94 18 12.77 17.93 12.63 17.79C12.49 17.65 12.42 17.48 12.42 17.28L12.42 16.62L5.58 16.62L5.58 17.28C5.58 17.48 5.51 17.65 5.37 17.79C5.23 17.93 5.06 18 4.86 18C4.66 18 4.49 17.93 4.35 17.79C4.21 17.65 4.14 17.48 4.14 17.28L4.14 16.62L3.48 16.62C2.84 16.62 2.26 16.46 1.74 16.14C1.22 15.82 0.8 15.4 0.48 14.88C0.16 14.36 0 13.78 0 13.14L0 3.48C0 2.84 0.16 2.26 0.48 1.74C0.8 1.22 1.22 0.8 1.74 0.48C2.26 0.16 2.84 0 3.48 0L14.52 0C15.16 0 15.74 0.16 16.26 0.48C16.78 0.8 17.2 1.22 17.52 1.74C17.84 2.26 18 2.84 18 3.48L18 13.14C18 13.78 17.84 14.36 17.52 14.88C17.2 15.4 16.78 15.82 16.26 16.14C15.74 16.46 15.16 16.62 14.52 16.62ZM3.48 15.18L4.14 15.18L4.14 13.86C4.14 13.66 4.21 13.49 4.35 13.35C4.49 13.21 4.66 13.14 4.86 13.14C5.06 13.14 5.23 13.21 5.37 13.35C5.51 13.49 5.58 13.66 5.58 13.86L5.58 15.18L12.42 15.18L12.42 13.86C12.42 13.66 12.49 13.49 12.63 13.35C12.77 13.21 12.94 13.14 13.14 13.14C13.34 13.14 13.51 13.21 13.65 13.35C13.79 13.49 13.86 13.66 13.86 13.86L13.86 15.18L14.52 15.18C15.08 15.18 15.57 14.98 15.99 14.58C16.41 14.18 16.62 13.7 16.62 13.14L16.62 12.48L1.38 12.48L1.38 13.14C1.38 13.7 1.59 14.18 2.01 14.58C2.43 14.98 2.92 15.18 3.48 15.18ZM14.52 1.38L3.48 1.38C2.92 1.38 2.43 1.59 2.01 2.01C1.59 2.43 1.38 2.92 1.38 3.48L1.38 11.04L16.62 11.04L16.62 3.48C16.62 2.92 16.41 2.43 15.99 2.01C15.57 1.59 15.08 1.38 14.52 1.38ZM6.24 8.28C6.24 8.08 6.17 7.92 6.03 7.8C5.89 7.68 5.72 7.62 5.52 7.62L4.14 7.62C3.94 7.62 3.78 7.68 3.66 7.8C3.54 7.92 3.48 8.08 3.48 8.28C3.48 8.48 3.54 8.65 3.66 8.79C3.78 8.93 3.94 9 4.14 9L5.52 9C5.72 9 5.89 8.93 6.03 8.79C6.17 8.65 6.24 8.48 6.24 8.28ZM14.52 8.28C14.52 8.08 14.46 7.92 14.34 7.8C14.22 7.68 14.06 7.62 13.86 7.62L12.48 7.62C12.28 7.62 12.11 7.68 11.97 7.8C11.83 7.92 11.76 8.08 11.76 8.28C11.76 8.48 11.83 8.65 11.97 8.79C12.11 8.93 12.28 9 12.48 9L13.86 9C14.06 9 14.22 8.93 14.34 8.79C14.46 8.65 14.52 8.48 14.52 8.28ZM10.38 8.28C10.38 8.08 10.31 7.92 10.17 7.8C10.03 7.68 9.86 7.62 9.66 7.62L8.28 7.62C8.12 7.62 7.97 7.68 7.83 7.8C7.69 7.92 7.62 8.08 7.62 8.28C7.62 8.48 7.69 8.65 7.83 8.79C7.97 8.93 8.12 9 8.28 9L9.66 9C9.86 9 10.03 8.93 10.17 8.79C10.31 8.65 10.38 8.48 10.38 8.28ZM6.24 4.14C6.24 3.94 6.17 3.77 6.03 3.63C5.89 3.49 5.72 3.42 5.52 3.42L4.14 3.42C3.94 3.42 3.78 3.49 3.66 3.63C3.54 3.77 3.48 3.94 3.48 4.14C3.48 4.34 3.54 4.51 3.66 4.65C3.78 4.79 3.94 4.86 4.14 4.86L5.52 4.86C5.72 4.86 5.89 4.79 6.03 4.65C6.17 4.51 6.24 4.34 6.24 4.14ZM14.52 4.14C14.52 3.94 14.46 3.77 14.34 3.63C14.22 3.49 14.06 3.42 13.86 3.42L12.48 3.42C12.28 3.42 12.11 3.49 11.97 3.63C11.83 3.77 11.76 3.94 11.76 4.14C11.76 4.34 11.83 4.51 11.97 4.65C12.11 4.79 12.28 4.86 12.48 4.86L13.86 4.86C14.06 4.86 14.22 4.79 14.34 4.65C14.46 4.51 14.52 4.34 14.52 4.14ZM10.38 4.14C10.38 3.94 10.31 3.77 10.17 3.63C10.03 3.49 9.86 3.42 9.66 3.42L8.28 3.42C8.12 3.42 7.97 3.49 7.83 3.63C7.69 3.77 7.62 3.94 7.62 4.14C7.62 4.34 7.69 4.51 7.83 4.65C7.97 4.79 8.12 4.86 8.28 4.86L9.66 4.86C9.86 4.86 10.03 4.79 10.17 4.65C10.31 4.51 10.38 4.34 10.38 4.14Z" fill="rgb(5,11,32)" fill-rule="nonzero" transform="matrix(1,0,0,-1,0,17.9999)" />
</svg>
