<svg viewBox="0 0 16.0801 14.64" xmlns="http://www.w3.org/2000/svg" xmlns:xlink="http://www.w3.org/1999/xlink" width="16.080078" height="14.640015" fill="none" customFrame="#000000">
	<path id="Vector" d="M2.04 14.64C1.48 14.64 1 14.44 0.6 14.04C0.2 13.64 0 13.15 0 12.57C0 11.99 0.2 11.5 0.6 11.1C1 10.7 1.48 10.5 2.04 10.5C2.6 10.5 3.08 10.7 3.48 11.1C3.88 11.5 4.08 11.99 4.08 12.57C4.08 13.15 3.88 13.64 3.48 14.04C3.08 14.44 2.6 14.64 2.04 14.64ZM2.04 13.5C2.28 13.5 2.5 13.41 2.7 13.23C2.9 13.05 3 12.83 3 12.57C3 12.31 2.9 12.09 2.7 11.91C2.5 11.73 2.28 11.64 2.04 11.64C1.8 11.64 1.58 11.73 1.38 11.91C1.18 12.09 1.08 12.31 1.08 12.57C1.08 12.83 1.18 13.05 1.38 13.23C1.58 13.41 1.8 13.5 2.04 13.5ZM2.04 4.14C1.48 4.14 1 3.94 0.6 3.54C0.2 3.14 0 2.65 0 2.07C0 1.49 0.2 1 0.6 0.6C1 0.2 1.48 0 2.04 0C2.6 0 3.08 0.2 3.48 0.6C3.88 1 4.08 1.49 4.08 2.07C4.08 2.65 3.88 3.14 3.48 3.54C3.08 3.94 2.6 4.14 2.04 4.14ZM2.04 3C2.28 3 2.5 2.91 2.7 2.73C2.9 2.55 3 2.33 3 2.07C3 1.81 2.9 1.59 2.7 1.41C2.5 1.23 2.28 1.14 2.04 1.14C1.8 1.14 1.58 1.23 1.38 1.41C1.18 1.59 1.08 1.81 1.08 2.07C1.08 2.33 1.18 2.55 1.38 2.73C1.58 2.91 1.8 3 2.04 3ZM8.04 14.64C7.48 14.64 7 14.44 6.6 14.04C6.2 13.64 6 13.15 6 12.57C6 11.99 6.2 11.5 6.6 11.1C7 10.7 7.48 10.5 8.04 10.5C8.6 10.5 9.08 10.7 9.48 11.1C9.88 11.5 10.08 11.99 10.08 12.57C10.08 13.15 9.88 13.64 9.48 14.04C9.08 14.44 8.6 14.64 8.04 14.64ZM8.04 13.5C8.28 13.5 8.5 13.41 8.7 13.23C8.9 13.05 9 12.83 9 12.57C9 12.31 8.9 12.09 8.7 11.91C8.5 11.73 8.28 11.64 8.04 11.64C7.8 11.64 7.58 11.73 7.38 11.91C7.18 12.09 7.08 12.31 7.08 12.57C7.08 12.83 7.18 13.05 7.38 13.23C7.58 13.41 7.8 13.5 8.04 13.5ZM8.04 4.14C7.48 4.14 7 3.94 6.6 3.54C6.2 3.14 6 2.65 6 2.07C6 1.49 6.2 1 6.6 0.6C7 0.2 7.48 0 8.04 0C8.6 0 9.08 0.2 9.48 0.6C9.88 1 10.08 1.49 10.08 2.07C10.08 2.65 9.88 3.14 9.48 3.54C9.08 3.94 8.6 4.14 8.04 4.14ZM8.04 3C8.28 3 8.5 2.91 8.7 2.73C8.9 2.55 9 2.33 9 2.07C9 1.81 8.9 1.59 8.7 1.41C8.5 1.23 8.28 1.14 8.04 1.14C7.8 1.14 7.58 1.23 7.38 1.41C7.18 1.59 7.08 1.81 7.08 2.07C7.08 2.33 7.18 2.55 7.38 2.73C7.58 2.91 7.8 3 8.04 3ZM14.04 14.64C13.48 14.64 13 14.44 12.6 14.04C12.2 13.64 12 13.15 12 12.57C12 11.99 12.2 11.5 12.6 11.1C13 10.7 13.48 10.5 14.04 10.5C14.6 10.5 15.08 10.7 15.48 11.1C15.88 11.5 16.08 11.99 16.08 12.57C16.08 13.15 15.88 13.64 15.48 14.04C15.08 14.44 14.6 14.64 14.04 14.64ZM14.04 13.5C14.28 13.5 14.5 13.41 14.7 13.23C14.9 13.05 15 12.83 15 12.57C15 12.31 14.9 12.09 14.7 11.91C14.5 11.73 14.28 11.64 14.04 11.64C13.8 11.64 13.58 11.73 13.38 11.91C13.18 12.09 13.08 12.31 13.08 12.57C13.08 12.83 13.18 13.05 13.38 13.23C13.58 13.41 13.8 13.5 14.04 13.5ZM14.04 4.14C13.48 4.14 13 3.94 12.6 3.54C12.2 3.14 12 2.65 12 2.07C12 1.49 12.2 1 12.6 0.6C13 0.2 13.48 0 14.04 0C14.6 0 15.08 0.2 15.48 0.6C15.88 1 16.08 1.49 16.08 2.07C16.08 2.65 15.88 3.14 15.48 3.54C15.08 3.94 14.6 4.14 14.04 4.14ZM14.04 3C14.28 3 14.5 2.91 14.7 2.73C14.9 2.55 15 2.33 15 2.07C15 1.81 14.9 1.59 14.7 1.41C14.5 1.23 14.28 1.14 14.04 1.14C13.8 1.14 13.58 1.23 13.38 1.41C13.18 1.59 13.08 1.81 13.08 2.07C13.08 2.33 13.18 2.55 13.38 2.73C13.58 2.91 13.8 3 14.04 3ZM1.5 11.1L1.5 3.6C1.5 3.44 1.55 3.3 1.65 3.18C1.75 3.06 1.88 3 2.04 3C2.2 3 2.33 3.06 2.43 3.18C2.53 3.3 2.58 3.42 2.58 3.54L2.58 11.1C2.58 11.22 2.53 11.34 2.43 11.46C2.33 11.58 2.2 11.64 2.04 11.64C1.88 11.64 1.75 11.58 1.65 11.46C1.55 11.34 1.5 11.22 1.5 11.1ZM7.5 11.1L7.5 3.6C7.5 3.44 7.55 3.3 7.65 3.18C7.75 3.06 7.88 3 8.04 3C8.2 3 8.33 3.06 8.43 3.18C8.53 3.3 8.58 3.42 8.58 3.54L8.58 11.1C8.58 11.22 8.53 11.34 8.43 11.46C8.33 11.58 8.2 11.64 8.04 11.64C7.88 11.64 7.75 11.58 7.65 11.46C7.55 11.34 7.5 11.22 7.5 11.1ZM13.5 11.1L13.5 8.1C13.5 8.02 13.48 7.96 13.44 7.92C13.4 7.88 13.36 7.86 13.32 7.86L2.04 7.86C1.88 7.86 1.75 7.81 1.65 7.71C1.55 7.61 1.5 7.48 1.5 7.32C1.5 7.16 1.55 7.03 1.65 6.93C1.75 6.83 1.88 6.78 2.04 6.78L13.32 6.78C13.68 6.78 13.98 6.9 14.22 7.14C14.46 7.38 14.58 7.7 14.58 8.1L14.58 11.04C14.58 11.2 14.53 11.34 14.43 11.46C14.33 11.58 14.2 11.64 14.04 11.64C13.88 11.64 13.75 11.58 13.65 11.46C13.55 11.34 13.5 11.22 13.5 11.1Z" fill="rgb(5,11,32)" fill-rule="nonzero" transform="matrix(1,0,0,-1,0,14.6399)" />
</svg>
