<svg viewBox="0 0 40.5 58.3186" xmlns="http://www.w3.org/2000/svg" xmlns:xlink="http://www.w3.org/1999/xlink" width="40.500000" height="58.318604" fill="none" customFrame="#000000">
	<g id="Group">
		<path id="Vector" d="M13.2188 52.13C13.2188 51.8944 13.077 51.6819 12.8596 51.5913C10.3182 50.5319 8.5312 48.0251 8.5312 45.0999L8.5312 22.5999C8.5312 19.6747 10.3182 17.1678 12.8596 16.1085C13.077 16.0179 13.2188 15.8053 13.2188 15.5698L13.2188 15.5686L8.5312 15.5686C4.648 15.5686 1.5 18.7167 1.5 22.5999L1.5 45.0999C1.5 48.9831 4.648 52.1312 8.5312 52.1312L13.2188 52.1312L13.2188 52.13Z" fill="rgb(249,251,252)" fill-rule="nonzero" />
		<path id="Vector" d="M13.6211 40.4793L26.8795 27.2209" fill-rule="nonzero" stroke="rgb(225,225,225)" stroke-linecap="round" stroke-linejoin="round" stroke-width="3" />
		<path id="Vector" d="M20.25 20.2562L34.3125 1.5061" fill-rule="nonzero" stroke="rgb(5,11,32)" stroke-linecap="round" stroke-linejoin="round" stroke-width="3" />
		<path id="Vector" d="M6.1875 1.5061L15.6395 12.1107" fill-rule="nonzero" stroke="rgb(5,11,32)" stroke-linecap="round" stroke-linejoin="round" stroke-width="3" />
		<path id="Vector" d="M39 29.1623L39 22.5998C39 18.7166 35.852 15.5685 31.9688 15.5685L28.3247 15.5685C26.7008 12.7782 23.7112 10.8811 20.25 10.8811C16.7888 10.8811 13.7993 12.7782 12.1753 15.5685L8.5312 15.5685C4.648 15.5685 1.5 18.7166 1.5 22.5998L1.5 45.0998C1.5 48.983 4.648 52.1311 8.5312 52.1311L12.1753 52.1311C13.7992 54.9214 16.7888 56.8185 20.25 56.8185C23.7112 56.8185 26.7007 54.9214 28.3247 52.1311L31.9688 52.1311C35.852 52.1311 39 48.983 39 45.0998L39 38.5373" fill-rule="nonzero" stroke="rgb(5,11,32)" stroke-linecap="round" stroke-linejoin="round" stroke-width="3" />
	</g>
</svg>
