<svg viewBox="0 0 60 60" xmlns="http://www.w3.org/2000/svg" xmlns:xlink="http://www.w3.org/1999/xlink" width="60.000000" height="60.000000" fill="none">
	<defs>
		<clipPath id="clipPath_4">
			<rect width="60.000000" height="60.000000" x="0.000000" y="0.000000" fill="rgb(255,255,255)" />
		</clipPath>
		<clipPath id="clipPath_5">
			<rect width="60.000000" height="60.000000" x="0.000000" y="0.000000" fill="rgb(255,255,255)" />
		</clipPath>
	</defs>
	<rect id="f-d-4.svg" width="60.000000" height="60.000000" x="0.000000" y="0.000000" />
	<g id="f-d-4.svg fill" clip-path="url(#clipPath_4)" customFrame="url(#clipPath_4)">
		<rect id="f-d-4.svg fill" width="60.000000" height="60.000000" x="0.000000" y="0.000000" />
		<g id="f-d-4.svg" clip-path="url(#clipPath_5)" customFrame="url(#clipPath_5)">
			<rect id="f-d-4.svg" width="60.000000" height="60.000000" x="0.000000" y="0.000000" />
			<path id="Vector" d="M23.5465 4.45312C19.8452 4.45312 16.4904 6.63083 14.9836 10.0114L8.88656 23.6906C5.23148 23.9418 2.34375 26.9843 2.34375 30.7031L2.34375 36.0938C2.34375 39.3298 4.96711 41.9531 8.20312 41.9531L9.80918 41.9531C9.81785 41.5022 9.82934 41.0514 9.84375 40.6005C9.4623 39.823 9.24727 38.949 9.24727 38.0245L9.14062 33.8672C9.14062 30.7927 9.76617 29.6094 12.0483 29.1497C13.1331 28.9311 14.0413 28.192 14.4858 27.1786L22.0148 10.0114C23.5215 6.63083 26.8764 4.45312 30.5777 4.45312L23.5465 4.45312Z" fill="rgb(249,251,252)" fill-rule="nonzero" />
			<path id="Vector" d="M8.20312 41.9531C4.96711 41.9531 2.34375 39.3298 2.34375 36.0938L2.34375 30.7031C2.34375 26.9843 5.23148 23.9418 8.88656 23.6906L14.9836 10.0114C16.4903 6.63083 19.8451 4.45312 23.5465 4.45312L34.2217 4.45312C37.7441 4.45312 40.9692 6.4275 42.5711 9.56461L45.5859 15.4688M57.6562 30.7031C57.6562 26.8199 54.5082 23.6719 50.625 23.6719L18.6328 23.6719M28.2422 15.4688L28.2422 4.57031M32.4609 41.9531L27.1873 41.9531M16.0545 41.9531C16.0545 44.5419 18.1532 46.6406 20.742 46.6406C23.3307 46.6406 25.4295 44.5419 25.4295 41.9531C25.4295 39.3643 23.3309 37.2656 20.742 37.2656C18.1532 37.2656 16.0545 39.3643 16.0545 41.9531Z" fill-rule="nonzero" stroke="rgb(5,11,32)" stroke-linecap="round" stroke-linejoin="round" stroke-width="3" />
			<path id="Vector" d="M57.6562 41.6016C57.6562 46.0997 54.0098 49.8047 49.5117 49.8047C45.0135 49.8047 41.3671 46.1583 41.3671 41.6602C41.3671 37.162 45.0722 33.5156 49.5703 33.5156M43.5351 48.1055L36.0938 55.5469" fill-rule="nonzero" stroke="rgb(225,225,225)" stroke-linecap="round" stroke-linejoin="round" stroke-width="3" />
		</g>
	</g>
</svg>
