<svg viewBox="0 0 16.9199 18" xmlns="http://www.w3.org/2000/svg" xmlns:xlink="http://www.w3.org/1999/xlink" width="16.919922" height="18.000000" fill="none" customFrame="#000000">
	<path id="Vector" d="M10.14 14.64C10.14 14.8 10.09 14.93 9.99 15.03C9.89 15.13 9.76 15.18 9.6 15.18L3.96 15.18C3.8 15.18 3.67 15.13 3.57 15.03C3.47 14.93 3.42 14.8 3.42 14.64L3.42 10.14C3.42 9.98 3.47 9.84 3.57 9.72C3.67 9.6 3.8 9.54 3.96 9.54L9.6 9.54C9.76 9.54 9.89 9.6 9.99 9.72C10.09 9.84 10.14 9.98 10.14 10.14L10.14 14.64ZM9 10.68L4.5 10.68L4.5 14.04L9 14.04L9 10.68ZM16.62 14.04L14.34 15.12C14.22 15.2 14.08 15.22 13.92 15.18C13.76 15.14 13.65 15.05 13.59 14.91C13.53 14.77 13.52 14.62 13.56 14.46C13.6 14.3 13.7 14.2 13.86 14.16L14.7 13.68L14.64 13.5C14.64 13.14 14.75 12.82 14.97 12.54C15.19 12.26 15.46 12.06 15.78 11.94L15.78 5.1C15.78 4.94 15.72 4.8 15.6 4.68C15.48 4.56 15.35 4.5 15.21 4.5C15.07 4.5 14.94 4.56 14.82 4.68C14.7 4.8 14.64 4.94 14.64 5.1L14.64 9.6C14.64 10.24 14.41 10.82 13.95 11.34C13.49 11.86 12.98 12.18 12.42 12.3L12.42 15.78C12.42 16.38 12.2 16.9 11.76 17.34C11.32 17.78 10.8 18 10.2 18L3.42 18C2.82 18 2.29 17.78 1.83 17.34C1.37 16.9 1.14 16.38 1.14 15.78L1.14 3.18L0.36 2.76C0.12 2.64 0 2.48 0 2.28L0 0.6C0 0.44 0.06 0.3 0.18 0.18C0.3 0.06 0.44 0 0.6 0L12.96 0C13.12 0 13.25 0.06 13.35 0.18C13.45 0.3 13.5 0.44 13.5 0.6L13.5 2.28C13.5 2.48 13.4 2.64 13.2 2.76L12.42 3.18L12.42 11.16C12.7 11.04 12.95 10.83 13.17 10.53C13.39 10.23 13.5 9.92 13.5 9.6L13.5 5.1C13.5 4.62 13.67 4.21 14.01 3.87C14.35 3.53 14.75 3.36 15.21 3.36C15.67 3.36 16.07 3.53 16.41 3.87C16.75 4.21 16.92 4.62 16.92 5.1L16.92 13.5C16.92 13.74 16.82 13.92 16.62 14.04ZM12.42 1.14L1.14 1.14L1.14 1.92L1.98 2.34C2.18 2.42 2.28 2.58 2.28 2.82L2.28 15.78C2.28 16.06 2.39 16.31 2.61 16.53C2.83 16.75 3.1 16.86 3.42 16.86L10.2 16.86C10.48 16.86 10.73 16.75 10.95 16.53C11.17 16.31 11.28 16.06 11.28 15.78L11.28 2.82C11.28 2.58 11.38 2.42 11.58 2.34L12.42 1.92L12.42 1.14Z" fill="rgb(5,11,32)" fill-rule="nonzero" transform="matrix(1,0,0,-1,0,18)" />
</svg>
