<svg viewBox="0 0 18 14.6743" xmlns="http://www.w3.org/2000/svg" xmlns:xlink="http://www.w3.org/1999/xlink" width="18.000000" height="14.674316" fill="none" customFrame="#000000">
	<path id="Vector" d="M18 5.73429C18 3.69429 17.4 1.87429 16.2 0.274286C16.08 0.114286 15.92 0.0242857 15.72 0.00428571C15.52 -0.0157143 15.34 0.0342857 15.18 0.154286C15.02 0.274286 14.93 0.424286 14.91 0.604286C14.89 0.784286 14.94 0.954286 15.06 1.11429C16.1 2.47429 16.62 4.01429 16.62 5.73429C16.62 7.09429 16.28 8.35429 15.6 9.51429C14.92 10.6743 13.99 11.5943 12.81 12.2743C11.63 12.9543 10.36 13.2943 9 13.2943C7.64 13.2943 6.37 12.9543 5.19 12.2743C4.01 11.5943 3.08 10.6743 2.4 9.51429C1.72 8.35429 1.38 7.09429 1.38 5.73429C1.38 4.01429 1.9 2.47429 2.94 1.11429C3.06 0.954286 3.11 0.784286 3.09 0.604286C3.07 0.424286 2.98 0.274286 2.82 0.154286C2.66 0.0342857 2.48 -0.0157143 2.28 0.00428571C2.08 0.0242857 1.92 0.114286 1.8 0.274286C0.6 1.87429 0 3.69429 0 5.73429C0 7.33429 0.4 8.82429 1.2 10.2043C2 11.5843 3.09 12.6743 4.47 13.4743C5.85 14.2743 7.36 14.6743 9 14.6743C10.64 14.6743 12.15 14.2743 13.53 13.4743C14.91 12.6743 16 11.5843 16.8 10.2043C17.6 8.82429 18 7.33429 18 5.73429ZM13.44 9.93429C13.6 9.81429 13.68 9.65429 13.68 9.45429C13.68 9.25429 13.6 9.09429 13.44 8.97429L11.16 6.63429C11.36 6.27429 11.46 5.89429 11.46 5.49429C11.46 4.81429 11.22 4.23429 10.74 3.75429C10.26 3.27429 9.68 3.03429 9 3.03429C8.32 3.03429 7.74 3.27429 7.26 3.75429C6.78 4.23429 6.54 4.81429 6.54 5.49429C6.54 6.17429 6.78 6.75429 7.26 7.23429C7.74 7.71429 8.32 7.95429 9 7.95429C9.4 7.95429 9.78 7.85429 10.14 7.65429L12.48 9.93429C12.6 10.0943 12.76 10.1743 12.96 10.1743C13.16 10.1743 13.32 10.0943 13.44 9.93429ZM10.08 5.49429C10.08 5.77429 9.97 6.01429 9.75 6.21429C9.53 6.41429 9.28 6.51429 9 6.51429C8.72 6.51429 8.47 6.41429 8.25 6.21429C8.03 6.01429 7.92 5.77429 7.92 5.49429C7.92 5.21429 8.03 4.96429 8.25 4.74429C8.47 4.52429 8.72 4.41429 9 4.41429C9.28 4.41429 9.53 4.52429 9.75 4.74429C9.97 4.96429 10.08 5.21429 10.08 5.49429Z" fill="rgb(5,11,32)" fill-rule="nonzero" transform="matrix(1,0,0,-1,0,14.6743)" />
</svg>
