<!-- icon666.com - MILLIONS OF FREE VECTOR ICONS --><svg id="Layer_1" enable-background="new 0 0 24 24" viewBox="0 0 24 24" xmlns="http://www.w3.org/2000/svg" xmlns:xlink="http://www.w3.org/1999/xlink"><linearGradient id="SVGID_1_" gradientUnits="userSpaceOnUse" x1="15.384" x2="5.024" y1="2.8" y2="20.746"><stop offset="0" stop-color="#f97794"></stop><stop offset="1" stop-color="#623aa2"></stop></linearGradient><path d="m5.6521 7.9624h14.302l-2.8723 6.0376h-8.0818l-4.9906-9h-2.0094" display="none" fill="none" stroke="#000" stroke-miterlimit="10"></path><path d="m21.1795 6.3803c-.37-.55-.9899-.88-1.6499-.88h-12.5394v-2.4999c0-.55-.45-1-1-1h-2.9998c-.55 0-1 .45-1 1s.45 1 1 1h1.9999l.01 8.9996c0 1.0999.9 1.9999 1.9999 1.9999h10.3195c.83 0 1.5599-.49 1.8599-1.2599l2.1999-5.4997c.25-.6201.17-1.3101-.2-1.86zm-3.8598 6.6197h-10.3195v-5.4998h12.5294zm-9.32 9.0005c-1.6542 0-2.9999-1.3461-2.9999-3.0003s1.3456-2.9999 2.9999-2.9999 3.0003 1.3456 3.0003 2.9998c0 1.6543-1.3461 3.0004-3.0003 3.0004zm0-4.0003c-.5512 0-1 .4487-1 1 0 .5517.4487 1.0004 1 1.0004.5517 0 1.0004-.4487 1.0004-1.0004 0-.5513-.4487-1-1.0004-1zm8.0006 4.0003c-1.6542 0-3.0003-1.3461-3.0003-3.0003s1.3461-2.9999 3.0003-2.9999 2.9999 1.3456 2.9999 2.9999c-.0001 1.6542-1.3457 3.0003-2.9999 3.0003zm0-4.0003c-.5517 0-1.0004.4487-1.0004 1 0 .5517.4487 1.0004 1.0004 1.0004.5512 0 1-.4487 1-1.0004-.0001-.5513-.4488-1-1-1z" fill="url(#SVGID_1_)"></path></svg>