<svg width="110" height="111" viewBox="0 0 110 111" fill="none" xmlns="http://www.w3.org/2000/svg">
<g clip-path="url(#clip0_5_7043)">
<g clip-path="url(#clip1_5_7043)">
<path d="M43.1686 14.8643C36.3829 14.8643 30.2324 18.8568 27.4699 25.0546L16.292 50.1331C9.59104 50.5935 4.29688 56.1715 4.29688 62.9893V75.8799C4.29688 81.8126 9.10636 86.6221 15.0391 86.6221H17.9835C17.9994 85.7954 18.0204 84.9689 18.0469 84.1424C17.3476 82.7169 16.9533 81.1146 16.9533 79.4197L16.7578 71.7979C16.7578 66.1613 17.9046 60.9842 22.0885 60.1413C24.0773 59.7407 25.7424 58.3857 26.5573 56.5277L40.3605 25.0546C43.1228 18.8568 49.2733 14.8643 56.0592 14.8643H43.1686Z" fill="#CEE1F2"/>
<path d="M94.9609 86.6221C100.894 86.6221 105.703 81.8126 105.703 75.8799V62.9893C105.703 55.87 99.9318 50.0987 92.8125 50.0987L79.5736 24.2906C76.6474 18.5089 70.7184 14.8643 64.2383 14.8643H43.1686C36.3829 14.8643 30.2324 18.8568 27.4699 25.0546L16.292 50.1331C9.59104 50.5935 4.29688 56.1715 4.29688 62.9893V75.8799C4.29688 81.8126 9.10636 86.6221 15.0391 86.6221" stroke="#405FF2" stroke-width="5" stroke-miterlimit="10" stroke-linecap="round" stroke-linejoin="round"/>
<path d="M38.0273 95.2158C42.7735 95.2158 46.6211 91.3682 46.6211 86.622C46.6211 81.8758 42.7735 78.0283 38.0273 78.0283C33.2811 78.0283 29.4336 81.8758 29.4336 86.622C29.4336 91.3682 33.2811 95.2158 38.0273 95.2158Z" stroke="#405FF2" stroke-width="5" stroke-miterlimit="10" stroke-linecap="round" stroke-linejoin="round"/>
<path d="M63.1646 86.6221H49.8438" stroke="#405FF2" stroke-width="5" stroke-miterlimit="10" stroke-linecap="round" stroke-linejoin="round"/>
<path d="M71.9727 95.2158C76.7189 95.2158 80.5664 91.3682 80.5664 86.622C80.5664 81.8758 76.7189 78.0283 71.9727 78.0283C67.2265 78.0283 63.3789 81.8758 63.3789 86.622C63.3789 91.3682 67.2265 95.2158 71.9727 95.2158Z" stroke="#405FF2" stroke-width="5" stroke-miterlimit="10" stroke-linecap="round" stroke-linejoin="round"/>
<path d="M51.5605 66.8564L63.5301 55.2499C65.9359 52.8987 64.2726 48.8112 60.9098 48.8112H49.9472C46.5783 48.8112 44.9179 44.7105 47.3364 42.3634L59.7325 30.333" stroke="#FF5CF3" stroke-width="5" stroke-miterlimit="10" stroke-linecap="round" stroke-linejoin="round"/>
</g>
</g>
<defs>
<clipPath id="clip0_5_7043">
<rect width="110" height="110" fill="white" transform="translate(0 0.0400391)"/>
</clipPath>
<clipPath id="clip1_5_7043">
<rect width="110" height="110" fill="white" transform="translate(0 0.0400391)"/>
</clipPath>
</defs>
</svg>
