<svg width="110" height="111" viewBox="0 0 110 111" fill="none" xmlns="http://www.w3.org/2000/svg">
<g clip-path="url(#clip0_5_7060)">
<g clip-path="url(#clip1_5_7060)">
<path d="M17.1875 84.2676V25.8124C17.1875 13.9518 26.779 4.33691 38.6109 4.33691H25.5664C13.7008 4.33691 4.08203 13.9556 4.08203 25.8212V84.2588C4.08203 96.1241 13.7008 105.743 25.5664 105.743H38.6109C26.779 105.743 17.1875 96.1282 17.1875 84.2676Z" fill="#CEE1F2"/>
<path d="M72.4023 104.546C70.1826 105.321 67.7967 105.743 65.3125 105.743H25.7812C13.9156 105.743 4.29688 96.1241 4.29688 84.2588V25.8212C4.29688 13.9556 13.9156 4.33691 25.7812 4.33691H65.3125C77.1779 4.33691 86.7969 13.9556 86.7969 25.8212V48.3798M54.7852 82.3252H71.1133M21.4844 82.1103L25.4341 86.2014C27.1343 87.9081 29.8912 87.9081 31.5915 86.2014L39.7461 77.8134" stroke="#405FF2" stroke-width="5" stroke-miterlimit="10" stroke-linecap="round" stroke-linejoin="round"/>
<path d="M105.047 70.1029C100.32 68.2647 97.1951 68.0022 94.8535 68.0022C90.5029 68.0022 87.0117 71.529 87.0117 75.8798C87.0117 80.2306 90.9148 83.7575 96.6917 83.7575C101.681 83.7575 105.703 87.2844 105.703 91.6352C105.703 95.9858 101.961 99.5129 97.6106 99.5129C95.5763 99.5129 91.0458 98.8524 86.582 97.078M96.6797 68.0022V61.0556M96.6797 99.5127V105.743M57.793 57.833V59.5517M34.1602 57.833V59.5517" stroke="#FF5CF4" stroke-width="5" stroke-miterlimit="10" stroke-linecap="round" stroke-linejoin="round"/>
<path d="M68.5352 36.7783H68.1835C68.1734 36.7546 68.1661 36.7302 68.1557 36.7067L64.3038 28.1603C64.3002 28.1523 64.2967 28.1446 64.2931 28.1366C62.5023 24.2267 58.9291 21.3617 54.734 20.4729C52.2427 19.9453 49.1996 19.5908 45.8829 19.5908C42.6308 19.5908 39.6816 19.9328 37.2649 20.442C33.0507 21.3302 29.4639 24.1977 27.6706 28.1128C27.6669 28.1207 27.6635 28.1287 27.6598 28.1366L23.7974 36.7065C23.7869 36.7299 23.7798 36.7544 23.7697 36.7781H23.418C21.0448 36.7781 19.1211 38.7018 19.1211 41.0749C19.1211 43.4481 21.0448 45.3718 23.418 45.3718V49.343C23.418 54.8537 27.8339 59.3369 33.2617 59.3369H58.6912C64.1193 59.3369 68.5352 54.8537 68.5352 49.3432V45.372C70.9083 45.372 72.832 43.4483 72.832 41.0752C72.832 38.702 70.9083 36.7783 68.5352 36.7783ZM35.4885 31.6815C36.1541 30.2369 37.4799 29.1793 39.0369 28.8512C40.6093 28.5199 42.9015 28.1845 45.8831 28.1845C48.9326 28.1845 51.3212 28.5345 52.953 28.8802C54.4951 29.207 55.811 30.2627 56.4755 31.7054L58.7617 36.7783H33.1914L35.4885 31.6815ZM35.0195 53.1064C32.1718 53.1064 29.8633 50.7979 29.8633 47.9502C29.8633 45.1024 32.1718 42.7939 35.0195 42.7939C37.8673 42.7939 40.1758 45.1024 40.1758 47.9502C40.1758 50.7979 37.8673 53.1064 35.0195 53.1064ZM56.9336 53.1064C54.0858 53.1064 51.7773 50.7979 51.7773 47.9502C51.7773 45.1024 54.0858 42.7939 56.9336 42.7939C59.7813 42.7939 62.0898 45.1024 62.0898 47.9502C62.0898 50.7979 59.7813 53.1064 56.9336 53.1064Z" fill="#FF5CF4"/>
</g>
</g>
<defs>
<clipPath id="clip0_5_7060">
<rect width="110" height="110" fill="white" transform="translate(0 0.0400391)"/>
</clipPath>
<clipPath id="clip1_5_7060">
<rect width="110" height="110" fill="white" transform="translate(0 0.0400391)"/>
</clipPath>
</defs>
</svg>
